<svg id="Logos" xmlns="http://www.w3.org/2000/svg" viewBox="0 0 431.99 91.56"><title>OR_LockUp</title><path d="M233.63,95.26a11.57,11.57,0,0,0-3.89-9.1,14.46,14.46,0,0,0-9.9-3.43h-14v34.39l9,0V90.68h5.08a4.32,4.32,0,0,1,4.59,4.58,4.58,4.58,0,0,1-1.26,3.35,4.44,4.44,0,0,1-3.33,1.28h-5.08l11.64,17.25h10L228,105.62A11.45,11.45,0,0,0,233.63,95.26Z" transform="translate(-35.99 -26.22)"/><path d="M392.65,95.1a11.59,11.59,0,0,0-3.88-9.1,14.53,14.53,0,0,0-9.91-3.43h-14V117l9,.05V90.52h5.09a4.31,4.31,0,0,1,4.58,4.58,4.6,4.6,0,0,1-1.25,3.35,4.46,4.46,0,0,1-3.33,1.28h-5.09L385.47,117h10L387,105.47A11.47,11.47,0,0,0,392.65,95.1Z" transform="translate(-35.99 -26.22)"/><polygon points="214.09 76.66 224.87 76.66 224.87 69.51 214.09 69.51 214.09 64.24 228.41 64.24 228.41 56.51 205.46 56.51 205.46 90.93 229.04 90.93 229.04 83.2 214.09 83.2 214.09 76.66"/><polygon points="274.67 76.97 285.45 76.97 285.45 69.82 274.67 69.82 274.67 64.55 288.99 64.55 288.99 56.82 266.04 56.82 266.04 91.23 289.62 91.23 289.62 83.51 274.67 83.51 274.67 76.97"/><path d="M287.26,96.82l-4-1.69a8.34,8.34,0,0,1-2.42-1.34,2.28,2.28,0,0,1-.73-1.73c0-1.62,1.12-2.45,3.35-2.45a5.79,5.79,0,0,1,3.3.94,10.13,10.13,0,0,1,2.51,2.66L295,88.82c-2.32-4.46-6.24-6.72-11.65-6.72a13.16,13.16,0,0,0-8.65,2.77,9,9,0,0,0-3.33,7.3c0,4.32,2.93,7.78,8.69,10.3l3.59,1.59a14.34,14.34,0,0,1,2.86,1.51,2.3,2.3,0,0,1,.82,1.93c0,1.83-1.28,2.76-3.82,2.76-3,0-5.59-1.48-7.81-4.4l-5.79,4.39h0a14,14,0,0,0,5.37,5.44,16.18,16.18,0,0,0,8.23,2.08,13.93,13.93,0,0,0,9-2.88,9.51,9.51,0,0,0,3.53-7.78,8.71,8.71,0,0,0-2.13-6A18.42,18.42,0,0,0,287.26,96.82Z" transform="translate(-35.99 -26.22)"/><path d="M341.09,82.37,330.3,117.42h8.86l1.63-5.63,9.88.14,1.53,5.49h8.55l-11.08-35Zm1.09,22,.08-.3,3.18-11.4,3.43,11.7Z" transform="translate(-35.99 -26.22)"/><path d="M416,90c3.8,0,6.88,1.89,9.16,5.61l6.55-4.45a17.12,17.12,0,0,0-6.37-6.62A18.05,18.05,0,0,0,416,82.1a18.52,18.52,0,0,0-13.24,5.14,17.71,17.71,0,0,0,0,25.42A18.52,18.52,0,0,0,416,117.78a18.17,18.17,0,0,0,9.34-2.43,17.12,17.12,0,0,0,6.37-6.62l-6.55-4.45c-2.28,3.72-5.36,5.61-9.16,5.61a9.57,9.57,0,0,1-7-2.71,9.79,9.79,0,0,1-2.7-7.19A9.92,9.92,0,0,1,409,92.74,9.48,9.48,0,0,1,416,90Z" transform="translate(-35.99 -26.22)"/><polygon points="423.05 69.1 409.86 69.1 409.86 56.36 401.23 56.36 401.23 90.78 409.86 90.78 409.86 76.83 423.05 76.83 423.05 90.78 431.68 90.78 431.68 56.36 423.05 56.36 423.05 69.1"/><path d="M412.84,73.28a18.74,18.74,0,0,0,13.34-5.19,17,17,0,0,0,5.48-12.82,17,17,0,0,0-5.48-12.82,18.78,18.78,0,0,0-13.34-5.19,18.59,18.59,0,0,0-13.28,5.19,17.09,17.09,0,0,0-5.42,12.82,17.12,17.12,0,0,0,5.42,12.83A18.58,18.58,0,0,0,412.84,73.28ZM405.8,48a10.35,10.35,0,0,1,14.14,0,9.88,9.88,0,0,1,2.79,7.26,9.85,9.85,0,0,1-2.79,7.29,10.44,10.44,0,0,1-14.14,0,9.94,9.94,0,0,1-2.74-7.29A10,10,0,0,1,405.8,48Z" transform="translate(-35.99 -26.22)"/><path d="M218.61,37.26a18.59,18.59,0,0,0-13.28,5.19,17.09,17.09,0,0,0-5.42,12.82,17.12,17.12,0,0,0,5.42,12.83,19.68,19.68,0,0,0,26.62,0,17,17,0,0,0,5.48-12.82A17,17,0,0,0,232,42.45,18.78,18.78,0,0,0,218.61,37.26Zm7.1,25.3a10.44,10.44,0,0,1-14.14,0,9.94,9.94,0,0,1-2.74-7.29A10,10,0,0,1,211.57,48a10.35,10.35,0,0,1,14.14,0,9.88,9.88,0,0,1,2.79,7.26A9.85,9.85,0,0,1,225.71,62.56Z" transform="translate(-35.99 -26.22)"/><path d="M370.7,73.28A18.71,18.71,0,0,0,384,68.09a17,17,0,0,0,5.48-12.82A17,17,0,0,0,384,42.45a19.66,19.66,0,0,0-26.62,0A17.12,17.12,0,0,0,352,55.27a17.13,17.13,0,0,0,5.43,12.83A18.56,18.56,0,0,0,370.7,73.28ZM363.65,48a10.37,10.37,0,0,1,14.15,0,9.88,9.88,0,0,1,2.79,7.26,9.85,9.85,0,0,1-2.79,7.29,10.45,10.45,0,0,1-14.15,0,10,10,0,0,1-2.74-7.29A10,10,0,0,1,363.65,48Z" transform="translate(-35.99 -26.22)"/><path d="M273.58,37.9h-8.71V58.63a6.64,6.64,0,1,1-13.27,0V37.9h-8.71v20a14.94,14.94,0,0,0,4.31,11.12,16.51,16.51,0,0,0,22.05,0,14.93,14.93,0,0,0,4.33-11.12Z" transform="translate(-35.99 -26.22)"/><polygon points="273.12 11.68 243.29 11.68 243.29 19.48 253.85 19.48 253.85 46.42 262.56 46.42 262.56 19.48 273.12 19.48 273.12 11.68"/><path d="M346.52,55.16a15.91,15.91,0,0,0-5.36-12.54,20,20,0,0,0-13.61-4.72h-12V72.64h12a19.6,19.6,0,0,0,13.58-4.87A16.26,16.26,0,0,0,346.52,55.16Zm-11.77,7.09a10.37,10.37,0,0,1-7.25,2.59h-3.28V45.75h3.28a10.84,10.84,0,0,1,7.27,2.41,8.72,8.72,0,0,1,2.83,7A9.17,9.17,0,0,1,334.75,62.25Z" transform="translate(-35.99 -26.22)"/><path d="M446.18,55.24v-9.3h5.13a4.36,4.36,0,0,1,4.63,4.62A4.67,4.67,0,0,1,454.67,54a4.48,4.48,0,0,1-3.36,1.29h-5.13l11.75,17.42H468L459.51,61a11.56,11.56,0,0,0,5.66-10.47,11.68,11.68,0,0,0-3.92-9.18,14.6,14.6,0,0,0-10-3.46H437.11V72.63l9.07.05Z" transform="translate(-35.99 -26.22)"/><path d="M184.07,67.68c0-9.18-3.25-16.64-9.67-22.16s-14.73-8.35-24.67-8.35h-34.9V50.29a41.31,41.31,0,1,0,0,34.47v33l22.37-.2V56.52h12.66a11.39,11.39,0,0,1,8.3,3.06,10.85,10.85,0,0,1,3.13,8.1,11,11,0,0,1-3.13,8.16,11.26,11.26,0,0,1-8.3,3.12H137.2l28.92,38.7H189.6L170.1,92.92C179.37,87.31,184.07,78.81,184.07,67.68ZM77.3,87.61A20.09,20.09,0,1,1,97.38,67.53,20.08,20.08,0,0,1,77.3,87.61Z" transform="translate(-35.99 -26.22)"/></svg>